<svg width="16" height="16" viewBox="0 0 16 16" fill="none" xmlns="http://www.w3.org/2000/svg">
<path d="M6.7646 9.17334C7.69238 10.1145 8.81495 10.8412 10.0535 11.3022L11.729 9.9689C11.7787 9.93469 11.8376 9.91637 11.8979 9.91637C11.9583 9.91637 12.0171 9.93469 12.0668 9.9689L15.1779 11.9733C15.296 12.0443 15.396 12.1418 15.47 12.2581C15.5439 12.3744 15.5898 12.5063 15.6041 12.6434C15.6183 12.7805 15.6005 12.919 15.5519 13.048C15.5034 13.177 15.4256 13.2929 15.3246 13.3867L13.8668 14.8267C13.6581 15.033 13.4015 15.1843 13.12 15.2673C12.8384 15.3503 12.5408 15.3623 12.2535 15.3022C9.38781 14.7104 6.74644 13.3242 4.63127 11.3022C2.56304 9.26012 1.13184 6.66172 0.511271 3.82223C0.449968 3.5394 0.462763 3.24553 0.548416 2.96911C0.63407 2.69268 0.789678 2.44306 1.00016 2.24445L2.51127 0.786673C2.60478 0.690578 2.71882 0.616884 2.84485 0.571107C2.97088 0.525331 3.10563 0.508659 3.23901 0.522339C3.37239 0.536019 3.50095 0.579698 3.61507 0.650104C3.72918 0.72051 3.82588 0.815819 3.89794 0.928895L5.96905 4.00001C6.00477 4.04823 6.02406 4.10666 6.02406 4.16667C6.02406 4.22669 6.00477 4.28511 5.96905 4.33334L4.6046 5.97334C5.0782 7.18709 5.81604 8.28019 6.7646 9.17334V9.17334Z" fill="white"/>
</svg>
