<svg width="17" height="14" viewBox="0 0 17 14" fill="none" xmlns="http://www.w3.org/2000/svg">
<path d="M4.33333 4.50002L7.98333 7.40835C8.13046 7.52461 8.31249 7.58785 8.5 7.58785C8.68751 7.58785 8.86954 7.52461 9.01667 7.40835L12.6667 4.50002M15.1667 12.8334H1.83333C1.61232 12.8334 1.40036 12.7456 1.24408 12.5893C1.0878 12.433 1 12.221 1 12V2.00002C1 1.77901 1.0878 1.56705 1.24408 1.41076C1.40036 1.25448 1.61232 1.16669 1.83333 1.16669H15.1667C15.3877 1.16669 15.5996 1.25448 15.7559 1.41076C15.9122 1.56705 16 1.77901 16 2.00002V12C16 12.221 15.9122 12.433 15.7559 12.5893C15.5996 12.7456 15.3877 12.8334 15.1667 12.8334Z" stroke="white" stroke-width="1.4" stroke-linecap="round" stroke-linejoin="round"/>
</svg>
