<svg width="28" height="28" viewBox="0 0 28 28" fill="none" xmlns="http://www.w3.org/2000/svg">
<rect width="28" height="28" fill="#1E1E1E"/>
<path d="M21.38 16.38C21.5768 16.577 21.7329 16.8109 21.8392 17.0683C21.9456 17.3257 22.0002 17.6015 22 17.88V17.88C22 18.4423 21.7766 18.9815 21.3791 19.3791C20.9815 19.7766 20.4423 20 19.88 20H8.12C7.55774 20 7.01851 19.7766 6.62093 19.3791C6.22336 18.9815 6 18.4423 6 17.88V17.88C5.99976 17.6015 6.05438 17.3257 6.16077 17.0683C6.26715 16.8109 6.4232 16.577 6.62 16.38L8 15V11C8 9.4087 8.63214 7.88258 9.75736 6.75736C10.8826 5.63214 12.4087 5 14 5V5C15.5913 5 17.1174 5.63214 18.2426 6.75736C19.3679 7.88258 20 9.4087 20 11V15L21.38 16.38ZM17 20H11C11 20.7956 11.3161 21.5587 11.8787 22.1213C12.4413 22.6839 13.2044 23 14 23C14.7956 23 15.5587 22.6839 16.1213 22.1213C16.6839 21.5587 17 20.7956 17 20Z" stroke="black" stroke-width="2" stroke-linecap="round" stroke-linejoin="round"/>
</svg>
