<svg width="5" height="10" viewBox="0 0 5 10" fill="none" xmlns="http://www.w3.org/2000/svg">
<path d="M1.14597 0.850482C0.925321 0.631794 0.56917 0.633383 0.350482 0.854031C0.131794 1.07468 0.133383 1.43083 0.354031 1.64952L1.67626 2.96C2.21288 3.49185 2.58098 3.85788 2.83005 4.16803C3.072 4.4693 3.15501 4.66281 3.1771 4.83612C3.19097 4.94494 3.19097 5.05506 3.1771 5.16388C3.15501 5.33719 3.072 5.5307 2.83006 5.83197C2.58098 6.14212 2.21288 6.50815 1.67626 7.04L0.354032 8.35048C0.133384 8.56917 0.131795 8.92532 0.350482 9.14597C0.56917 9.36662 0.925322 9.36821 1.14597 9.14952L2.49202 7.81543C2.999 7.31297 3.41335 6.90231 3.70721 6.5364C4.01278 6.15591 4.23398 5.76971 4.29307 5.30612C4.31898 5.10285 4.31898 4.89715 4.29307 4.69388C4.23398 4.23029 4.01278 3.84409 3.70721 3.46359C3.41335 3.09769 2.999 2.68703 2.49202 2.18458L1.14597 0.850482Z" fill="white"/>
</svg>
