<svg width="11" height="12" viewBox="0 0 11 12" fill="none" xmlns="http://www.w3.org/2000/svg">
<g clip-path="url(#clip0_272_4353)">
<path d="M2.77076 10.0846C3.57862 10.6244 4.5284 10.9125 5.5 10.9125C6.80288 10.9125 8.05239 10.3949 8.97366 9.47366C9.89494 8.55239 10.4125 7.30288 10.4125 6C10.4125 5.0284 10.1244 4.07862 9.5846 3.27076C9.0448 2.46291 8.27758 1.83326 7.37993 1.46144C6.48229 1.08963 5.49455 0.992345 4.54162 1.18189C3.58869 1.37144 2.71337 1.83931 2.02634 2.52634C1.33931 3.21337 0.871444 4.08869 0.681894 5.04162C0.492345 5.99455 0.589628 6.98229 0.961444 7.87993C1.33326 8.77758 1.96291 9.5448 2.77076 10.0846ZM3.26383 2.65334C3.92574 2.21106 4.70393 1.975 5.5 1.975C6.5675 1.975 7.59127 2.39906 8.34611 3.1539C9.10094 3.90873 9.525 4.93251 9.525 6C9.525 6.79607 9.28894 7.57426 8.84667 8.23617C8.40439 8.89808 7.77578 9.41397 7.0403 9.71862C6.30483 10.0233 5.49554 10.103 4.71476 9.94766C3.93399 9.79236 3.2168 9.40901 2.6539 8.84611C2.09099 8.2832 1.70765 7.56601 1.55234 6.78524C1.39704 6.00447 1.47674 5.19517 1.78139 4.4597C2.08603 3.72423 2.60192 3.09561 3.26383 2.65334Z" fill="#72777A" stroke="#72777A" stroke-width="0.2"/>
<path d="M7.07781 8.0625L5.15625 6.14094V2.90625H5.84375V5.85562L7.5625 7.57781L7.07781 8.0625Z" fill="#72777A"/>
</g>
<defs>
<clipPath id="clip0_272_4353">
<rect width="11" height="11" fill="white" transform="translate(0 0.5)"/>
</clipPath>
</defs>
</svg>
