<svg width="15" height="16" viewBox="0 0 15 16" fill="none" xmlns="http://www.w3.org/2000/svg">
<path d="M12.2186 12.5875L9.5705 9.5625L8.74981 8.625L8.74981 3.625L6.24981 3.625L6.24981 8.625L4.51544 10.6063L2.78106 12.5875C2.70179 12.6777 2.6502 12.7889 2.63246 12.9077C2.61472 13.0265 2.63159 13.1479 2.68104 13.2573C2.73049 13.3668 2.81044 13.4597 2.91131 13.5249C3.01218 13.5901 3.1297 13.6248 3.24981 13.625L11.7498 13.625C11.8699 13.6248 11.9874 13.5901 12.0883 13.5249C12.1892 13.4597 12.2691 13.3668 12.3186 13.2573C12.368 13.1479 12.3849 13.0265 12.3672 12.9077C12.3494 12.7889 12.2978 12.6777 12.2186 12.5875Z" fill="white"/>
<path d="M4.51544 10.6063L6.24981 8.625L6.24981 3.625L8.74981 3.625L8.74981 8.625L9.5705 9.5625M4.51544 10.6063L2.78106 12.5875C2.70179 12.6777 2.6502 12.7889 2.63246 12.9077C2.61472 13.0265 2.63159 13.1479 2.68104 13.2573C2.73049 13.3668 2.81044 13.4597 2.91131 13.5249C3.01218 13.5901 3.1297 13.6248 3.24981 13.625L11.7498 13.625C11.8699 13.6248 11.9874 13.5901 12.0883 13.5249C12.1892 13.4597 12.2691 13.3668 12.3186 13.2573C12.368 13.1479 12.3849 13.0265 12.3672 12.9077C12.3494 12.7889 12.2978 12.6777 12.2186 12.5875L9.5705 9.5625M4.51544 10.6063C6.16154 10.8833 9.47709 11.0625 9.5705 9.5625" stroke="white" stroke-width="1.25" stroke-linecap="round" stroke-linejoin="round"/>
</svg>
