<svg width="17" height="17" viewBox="0 0 17 17" fill="none" xmlns="http://www.w3.org/2000/svg">
<path d="M17 8.5C17 13.1944 13.1944 17 8.5 17C3.80558 17 0 13.1944 0 8.5C0 3.80558 3.80558 0 8.5 0C13.1944 0 17 3.80558 17 8.5ZM0.85 8.5C0.85 12.725 4.27502 16.15 8.5 16.15C12.725 16.15 16.15 12.725 16.15 8.5C16.15 4.27502 12.725 0.85 8.5 0.85C4.27502 0.85 0.85 4.27502 0.85 8.5Z" fill="#9DC458"/>
<path d="M6.07129 8.70231L7.87129 10.6856L11.1713 7.28564" stroke="#9DC458" stroke-width="1.2" stroke-linecap="round"/>
</svg>
